<svg xmlns="http://www.w3.org/2000/svg" viewBox="0 0 64 64">
  <defs>
    <linearGradient id="bg" x1="8" y1="6" x2="56" y2="58" gradientUnits="userSpaceOnUse">
      <stop offset="0" stop-color="#22343a" />
      <stop offset="0.55" stop-color="#142126" />
      <stop offset="1" stop-color="#0a1114" />
    </linearGradient>
    <linearGradient id="shell" x1="18" y1="14" x2="47" y2="46" gradientUnits="userSpaceOnUse">
      <stop offset="0" stop-color="#f5dfb0" />
      <stop offset="0.58" stop-color="#d5a770" />
      <stop offset="1" stop-color="#8a5d41" />
    </linearGradient>
    <linearGradient id="sea" x1="14" y1="19" x2="42" y2="47" gradientUnits="userSpaceOnUse">
      <stop offset="0" stop-color="#9ad5c7" stop-opacity="0.9" />
      <stop offset="1" stop-color="#3f7f77" stop-opacity="0.15" />
    </linearGradient>
  </defs>

  <rect width="64" height="64" rx="16" fill="url(#bg)" />
  <path d="M8 49c8-7 15-10 24-10 12 0 18 4 24 9v8H8Z" fill="#2f261f" fill-opacity="0.95" />
  <path d="M8 45c7-5 15-8 24-8 11 0 18 3 24 7" fill="none" stroke="#6c5442" stroke-width="2" stroke-linecap="round" />
  <circle cx="47" cy="18" r="8" fill="#f4d59c" fill-opacity="0.18" />
  <circle cx="47" cy="18" r="13" fill="none" stroke="#f4d59c" stroke-opacity="0.08" />
  <path d="M11 35c6-8 16-14 26-14 5 0 9 1 13 3-4-7-12-12-22-12-15 0-27 12-27 27 0 2 0 4 1 6 2-3 5-6 9-10Z" fill="url(#sea)" />

  <g transform="translate(18 16)">
    <path d="M14 0c8 0 15 7 15 15 0 8-7 15-15 15S0 23 0 15C0 10 2 6 6 3" fill="none" stroke="url(#shell)" stroke-width="5" stroke-linecap="round"/>
    <path d="M14 6c5 0 9 4 9 9 0 5-4 9-9 9s-9-4-9-9c0-3 2-6 4-7" fill="none" stroke="url(#shell)" stroke-width="3.8" stroke-linecap="round"/>
    <path d="M14 12c2 0 4 2 4 4s-2 4-4 4-4-2-4-4c0-1 1-3 2-3" fill="none" stroke="url(#shell)" stroke-width="2.8" stroke-linecap="round"/>
    <path d="M14 1.5v27" stroke="#f7e6c5" stroke-opacity="0.5" stroke-width="1.5" stroke-linecap="round"/>
    <path d="M5 11h18" stroke="#f7e6c5" stroke-opacity="0.22" stroke-width="1.2" stroke-linecap="round"/>
    <path d="M8 22h12" stroke="#f7e6c5" stroke-opacity="0.18" stroke-width="1.2" stroke-linecap="round"/>
  </g>

  <path d="M14 54c8-5 15-6 26-4" fill="none" stroke="#9dc9be" stroke-opacity="0.4" stroke-width="2" stroke-linecap="round" />
</svg>
